<svg version="1.1" xmlns="http://www.w3.org/2000/svg" viewBox="0 0 649.8112679847263 452.8549417436934" width="649.8112679847263" height="452.8549417436934" filter="invert(93%) hue-rotate(180deg)"><!-- svg-source:excalidraw --><metadata></metadata><defs><style class="style-fonts">
      @font-face { font-family: Excalifont; src: url(https://esm.sh/@excalidraw/excalidraw/dist/prod/fonts/Excalifont/Excalifont-Regular-a88b72a24fb54c9f94e3b5fdaa7481c9.woff2); }</style></defs><g stroke-linecap="round"><g transform="translate(83.69214088737863 16.99923020924689) rotate(0 1.66668701171875 49.000030517578125)"><path d="M-0.22 -0.94 C0.19 15.63, 3.16 82.25, 3.56 98.82 M-1.79 1.19 C-1.62 17.47, 1.69 81.26, 2.73 97.12" stroke="#1e1e1e" stroke-width="1" fill="none"></path></g></g><mask></mask><g stroke-linecap="round"><g transform="translate(208.02551491081613 31.01619360181394) rotate(0 2.9984705411670802 29.9915488212946)"><path d="M0.23 0.82 C1.07 6.38, 4.44 22.42, 4.83 32.48 C5.22 42.53, 3.3 56.49, 2.56 61.15 M-1.11 0.2 C0.1 5.48, 6.35 20.72, 6.93 30.59 C7.5 40.46, 3.46 54.23, 2.31 59.41" stroke="#1e1e1e" stroke-width="1" fill="none"></path></g></g><mask></mask><g stroke-linecap="round"><g transform="translate(208.92505089823953 33.41923912560833) rotate(0 -62.333282470703125 -9.54331744646197)"><path d="M-1.17 0.46 C-5.36 -2.67, -4.13 -14.81, -24.9 -17.92 C-45.68 -21.04, -109.28 -18.08, -125.83 -18.25 M0.42 -0.35 C-3.86 -3.85, -4.67 -16.1, -25.33 -19.44 C-45.99 -22.77, -107.15 -20.61, -123.55 -20.38" stroke="#1e1e1e" stroke-width="1" fill="none"></path></g></g><mask></mask><g stroke-linecap="round"><g transform="translate(210.08389484982854 90.84859988673816) rotate(0 -62.333282470703125 11.666656494140625)"><path d="M1 1.16 C-3.29 4.63, -6.02 17.59, -26.89 21.23 C-47.76 24.88, -107.99 22.51, -124.21 23.03 M0.06 0.73 C-3.77 3.78, -3.99 15.42, -24.79 19.33 C-45.59 23.24, -108.25 23.69, -124.74 24.19" stroke="#1e1e1e" stroke-width="1" fill="none"></path></g></g><mask></mask><g stroke-linecap="round"><g transform="translate(18.258485956833283 42.085849843381766) rotate(0 33.000030517578125 0.000030517578125)"><path d="M-1.16 0.41 C9.75 0.17, 55.19 -0.4, 66.45 -0.3 M0.43 -0.41 C11.13 0.03, 54.83 1.14, 65.74 1.08" stroke="#1e1e1e" stroke-width="1" fill="none"></path></g></g><mask></mask><g stroke-linecap="round"><g transform="translate(217.037024892913 61.562138355404386) rotate(0 32.66671752929642 0.3333587646484375)"><path d="M0.45 -0.3 C11.61 -0.09, 55.04 1.56, 65.78 1.69 M-0.77 -1.51 C10.37 -1.65, 54.28 -0.44, 65.06 0.1" stroke="#1e1e1e" stroke-width="1" fill="none"></path></g></g><mask></mask><g transform="translate(118.35888893425363 46.165947738543764) rotate(0 29.23199462890625 17.5)"><text x="0" y="24.668" font-family="Excalifont, Xiaolai, Segoe UI Emoji" font-size="28px" fill="#1e1e1e" text-anchor="start" style="white-space: pre;" direction="ltr" dominant-baseline="alphabetic">AND</text></g><g stroke-linecap="round"><g transform="translate(21.370337881194246 97.56213835540439) rotate(0 31.3333740234375 -0.6666412353515625)"><path d="M-0.43 -0.18 C9.82 -0.46, 51.46 -0.56, 61.92 -0.64 M1.55 -1.32 C12.14 -1.42, 54.27 -2.18, 64.25 -2.4" stroke="#1e1e1e" stroke-width="1" fill="none"></path></g></g><mask></mask><g stroke-linecap="round"><g transform="translate(405.9000995209026 16.21553769768161) rotate(0 10.494542666848247 46.83206843599055)"><path d="M-0.32 0.9 C3.46 8.65, 21.68 29.81, 22.07 45.31 C22.46 60.81, 5.13 85.86, 2.01 93.91 M1.71 0.32 C5.48 8.28, 21.26 30.43, 21.69 46.27 C22.12 62.11, 7.29 87.28, 4.29 95.36" stroke="#1e1e1e" stroke-width="1" fill="none"></path></g></g><mask></mask><g stroke-linecap="round"><g transform="translate(506.89165942946056 21.966285980919565) rotate(0 15.927822712953912 34.717715699877544)"><path d="M1.08 -1.1 C6.25 4.74, 29.63 24.2, 30.68 35.95 C31.73 47.71, 11.35 64.04, 7.39 69.42 M0.19 0.93 C5.73 6.31, 31.69 22.33, 32.77 33.96 C33.86 45.59, 11.01 64.93, 6.71 70.73" stroke="#1e1e1e" stroke-width="1" fill="none"></path></g></g><mask></mask><g stroke-linecap="round"><g transform="translate(524.9550608564587 38.280754454548514) rotate(0 -59.25683684601927 -13.262693333398829)"><path d="M-1.18 0.25 C-8.32 -3.99, -22.18 -22.27, -41.79 -26.54 C-61.41 -30.82, -105.88 -25.93, -118.85 -25.4 M0.41 -0.66 C-6.98 -4.6, -22.62 -21.01, -42.66 -25.01 C-62.69 -29.02, -106.9 -24.63, -119.79 -24.7" stroke="#1e1e1e" stroke-width="1" fill="none"></path></g></g><mask></mask><g stroke-linecap="round"><g transform="translate(527.9740862765266 75.3284378910821) rotate(0 -60.212563582105304 16.885011238348625)"><path d="M0.16 -0.02 C-6.34 4.76, -19.93 23.13, -40.21 28.91 C-60.49 34.68, -108.31 33.73, -121.53 34.65 M-1.21 -1.07 C-7.8 3.78, -21.67 24.18, -41.33 29.82 C-61 35.46, -106.3 32.38, -119.21 32.77" stroke="#1e1e1e" stroke-width="1" fill="none"></path></g></g><mask></mask><g stroke-linecap="round"><g transform="translate(352.91905657169445 40.192222510399006) rotate(0 31.53997398092588 0.000029167355478421086)"><path d="M-0.33 -1.18 C9.97 -1.04, 51.26 0.58, 61.98 0.88 M1.69 0.81 C12.34 0.63, 53.78 -0.42, 64.11 -0.78" stroke="#1e1e1e" stroke-width="1" fill="none"></path></g></g><mask></mask><g stroke-linecap="round"><g transform="translate(533.3452596029165 58.8068002328946) rotate(0 31.221408124682057 0.3186096072768123)"><path d="M-1.1 0.88 C9.51 1.29, 52.57 1.34, 63.35 1.26 M0.52 0.29 C11.09 0.45, 52.4 -0.75, 62.88 -0.54" stroke="#1e1e1e" stroke-width="1" fill="none"></path></g></g><mask></mask><g transform="translate(452.77121069229906 45.40020653044576) rotate(0 20.110110977443583 16.725728310226714)"><text x="0" y="23.576586626095672" font-family="Excalifont, Xiaolai, Segoe UI Emoji" font-size="26.76116529636285px" fill="#1e1e1e" text-anchor="start" style="white-space: pre;" direction="ltr" dominant-baseline="alphabetic">OR</text></g><g stroke-linecap="round"><g transform="translate(355.8932274190356 93.21401275679) rotate(0 29.947057197641698 -0.6371462961647012)"><path d="M1.11 -0.27 C11.11 -0.78, 51.26 -2.28, 60.89 -2.44 M0.24 -1.46 C10.08 -1.92, 50.3 -1.77, 60.46 -1.51" stroke="#1e1e1e" stroke-width="1" fill="none"></path></g></g><mask></mask><g stroke-linecap="round"><g transform="translate(79.21133422786261 340.96745655987434) rotate(0 1.7161525037404317 50.45429913645944)"><path d="M1 -1.16 C0.94 7.22, 0.47 32.86, 0.77 50.03 C1.06 67.21, 2.22 93.44, 2.77 101.89 M0.06 0.84 C0.27 9.46, 2.68 35.05, 2.95 51.59 C3.21 68.13, 1.37 91.7, 1.66 100.06" stroke="#1e1e1e" stroke-width="1" fill="none"></path></g></g><mask></mask><g stroke-linecap="round"><g transform="translate(202.44704605238894 389.1591207189158) rotate(0 -61.32627911887266 -25.252518487270436)"><path d="M-1.02 0.03 C-11.34 -4.61, -40.78 -20.58, -60.94 -29.03 C-81.11 -37.49, -111.7 -46.92, -122 -50.68 M0.65 -1 C-9.36 -5.86, -38.07 -22.57, -58.58 -30.64 C-79.09 -38.72, -111.77 -46.05, -122.43 -49.46" stroke="#1e1e1e" stroke-width="1" fill="none"></path></g></g><mask></mask><g stroke-linecap="round"><g transform="translate(199.23544195966133 386.6966760583796) rotate(0 -59.123858470761206 27.168870743616253)"><path d="M-0.66 0.98 C-12.21 6.59, -50.71 24.97, -70.32 33.68 C-89.94 42.39, -110.39 49.79, -118.34 53.24 M1.2 0.45 C-10.37 6.24, -50.87 26.2, -70.93 35.12 C-90.99 44.04, -111.36 50.58, -119.15 53.99" stroke="#1e1e1e" stroke-width="1" fill="none"></path></g></g><mask></mask><g stroke-linecap="round"><g transform="translate(16.386648992329356 391.2184314497972) rotate(0 33.979436209715914 0.00003142330729133391)"><path d="M0.65 -0.18 C12.07 -0.52, 56.61 -1.14, 67.87 -1.09 M-0.47 -1.32 C10.84 -1.64, 55.54 -0.59, 66.87 -0.13" stroke="#1e1e1e" stroke-width="1" fill="none"></path></g></g><mask></mask><g stroke-linecap="round"><g transform="translate(216.5137521012166 386.85294426768723) rotate(0 33.636230847613206 0.34325249706330396)"><path d="M-0.09 -1.09 C11.04 -0.94, 56.18 0.67, 67.48 0.77 M-1.6 0.95 C9.34 1.33, 55.18 2.47, 66.64 2.35" stroke="#1e1e1e" stroke-width="1" fill="none"></path></g></g><mask></mask><g transform="translate(93.0779626930962 371.69119722225287) rotate(0 32.23165627280514 18.019381326125767)"><text x="0" y="25.400119917306856" font-family="Excalifont, Xiaolai, Segoe UI Emoji" font-size="28.8310101218012px" fill="#1e1e1e" text-anchor="start" style="white-space: pre;" direction="ltr" dominant-baseline="alphabetic">NOT</text></g><g stroke-linecap="round" transform="translate(200.58624491767932 377.4661040978135) rotate(0 8.618760746033786 8.618760746033558)"><path d="M9.87 0.02 C11.48 -0.01, 13.16 0.95, 14.41 2.34 C15.66 3.73, 17.24 6.53, 17.36 8.36 C17.47 10.19, 16.16 11.97, 15.11 13.32 C14.06 14.67, 12.87 16.02, 11.08 16.49 C9.29 16.95, 6.17 16.8, 4.37 16.11 C2.56 15.42, 0.99 14.06, 0.26 12.34 C-0.47 10.62, -0.53 7.54, -0.02 5.79 C0.5 4.04, 1.7 2.8, 3.35 1.84 C4.99 0.88, 8.71 0.37, 9.86 0.03 C11 -0.3, 10.26 -0.31, 10.24 -0.18 M6.23 0.79 C7.96 0.37, 10.49 0.08, 12.24 0.8 C13.99 1.52, 15.85 3.42, 16.72 5.11 C17.6 6.8, 18.1 8.99, 17.48 10.93 C16.87 12.86, 14.71 15.61, 13.05 16.7 C11.38 17.79, 9.38 17.89, 7.49 17.47 C5.59 17.05, 2.96 15.76, 1.68 14.2 C0.41 12.63, -0.19 9.82, -0.14 8.09 C-0.09 6.35, 0.86 5.01, 2 3.79 C3.13 2.58, 5.88 1.46, 6.67 0.79 C7.46 0.11, 6.66 -0.3, 6.73 -0.25" stroke="#1e1e1e" stroke-width="1" fill="none"></path></g><g stroke-linecap="round"><g transform="translate(75.53303370815593 181.8428980884637) rotate(0 1.66668701171875 49.000030517578125)"><path d="M-0.74 0.69 C-0.17 17.17, 2.49 82.43, 3.01 98.68 M1.07 0.01 C1.49 16.15, 1.28 80.31, 1.89 96.91" stroke="#1e1e1e" stroke-width="1" fill="none"></path></g></g><mask></mask><g stroke-linecap="round"><g transform="translate(199.86640773159343 195.85986148103075) rotate(0 2.9984705411670802 29.9915488212946)"><path d="M-0.32 0.68 C0.64 5.93, 4.91 22.21, 5.03 32.22 C5.16 42.22, 0.85 56.26, 0.42 60.73 M1.71 -0.01 C3.1 4.79, 7.07 20.4, 7.24 30.19 C7.41 39.99, 3.39 53.88, 2.72 58.78" stroke="#1e1e1e" stroke-width="1" fill="none"></path></g></g><mask></mask><g stroke-linecap="round"><g transform="translate(200.76594371901774 198.26290700482514) rotate(0 -62.333282470703125 -9.54331744646197)"><path d="M-0.96 0.19 C-5.42 -2.97, -6.57 -15.03, -27.04 -18.34 C-47.51 -21.64, -107.56 -19.42, -123.77 -19.63 M0.73 -0.75 C-3.34 -4.32, -4.12 -17.06, -24.93 -20.07 C-45.73 -23.08, -107.58 -19, -124.07 -18.82" stroke="#1e1e1e" stroke-width="1" fill="none"></path></g></g><mask></mask><g stroke-linecap="round"><g transform="translate(201.92478767060493 255.69226776595497) rotate(0 -62.333282470703125 11.666656494140625)"><path d="M-1.14 0.75 C-5.12 4.03, -4.31 16.25, -24.83 19.86 C-45.36 23.46, -107.61 21.98, -124.3 22.4 M0.46 0.1 C-3.51 3.48, -4.42 17.03, -25.31 20.89 C-46.2 24.74, -108.28 22.88, -124.88 23.23" stroke="#1e1e1e" stroke-width="1" fill="none"></path></g></g><mask></mask><g stroke-linecap="round"><g transform="translate(10.0993787776124 206.92951772259858) rotate(0 33.000030517578125 0.000030517578125)"><path d="M0.89 -0.96 C12.14 -1.24, 55.56 -0.94, 66.36 -0.93 M-0.1 1.15 C11.12 0.92, 54.79 0.33, 65.61 0.12" stroke="#1e1e1e" stroke-width="1" fill="none"></path></g></g><mask></mask><g stroke-linecap="round"><g transform="translate(224.87791771368938 227.07246272876182) rotate(0 32.666717529296875 0.3333587646484375)"><path d="M0.36 -0.93 C11.05 -0.81, 54.31 -0.33, 65.03 -0.26 M-0.9 1.2 C9.52 1.52, 53.17 0.96, 63.92 0.79" stroke="#1e1e1e" stroke-width="1" fill="none"></path></g></g><mask></mask><g transform="translate(105.53309474331218 211.67630262947932) rotate(0 36.959991455078125 17.5)"><text x="0" y="24.668" font-family="Excalifont, Xiaolai, Segoe UI Emoji" font-size="28px" fill="#1e1e1e" text-anchor="start" style="white-space: pre;" direction="ltr" dominant-baseline="alphabetic">NAND</text></g><g stroke-linecap="round"><g transform="translate(13.211230701971544 262.4058062346212) rotate(0 31.3333740234375 -0.6666412353515625)"><path d="M-0.61 -1.19 C9.83 -1.11, 51.62 -0.23, 62.35 -0.44 M1.26 0.8 C11.55 0.64, 50.85 -1.67, 61.23 -2.09" stroke="#1e1e1e" stroke-width="1" fill="none"></path></g></g><mask></mask><g stroke-linecap="round" transform="translate(209.16049919147918 219.40396173889349) rotate(0 8 8)"><path d="M8.84 -0.18 C10.43 0.03, 13.06 1.82, 14.17 3.1 C15.28 4.38, 15.44 5.92, 15.51 7.49 C15.58 9.07, 15.66 11.18, 14.59 12.53 C13.51 13.88, 10.88 15.14, 9.05 15.59 C7.23 16.03, 5.12 16.06, 3.64 15.2 C2.17 14.34, 0.8 11.98, 0.19 10.41 C-0.42 8.84, -0.66 7.31, -0.01 5.76 C0.64 4.22, 2.36 2.12, 4.07 1.12 C5.77 0.12, 9.18 -0.11, 10.24 -0.24 C11.3 -0.36, 10.6 0.27, 10.43 0.4 M6.32 -0.16 C8.04 -0.67, 10.6 -0.05, 12.26 0.82 C13.92 1.68, 15.76 3.22, 16.28 5.02 C16.8 6.83, 16.1 9.94, 15.38 11.66 C14.66 13.38, 13.54 14.69, 11.97 15.36 C10.4 16.04, 7.66 16.24, 5.93 15.72 C4.2 15.2, 2.56 13.46, 1.59 12.23 C0.63 11, 0.09 9.82, 0.12 8.34 C0.14 6.85, 0.69 4.79, 1.77 3.31 C2.85 1.84, 5.75 0, 6.6 -0.5 C7.45 -1.01, 6.78 -0.05, 6.87 0.28" stroke="#1e1e1e" stroke-width="1" fill="none"></path></g><g stroke-linecap="round"><g transform="translate(405.0514518074415 177.78765294840377) rotate(0 10.494542666848247 46.83206843599055)"><path d="M0.75 0.87 C4.15 8.25, 20.62 29.93, 20.92 45.45 C21.21 60.97, 5.33 86.16, 2.51 94 M-0.32 0.27 C2.87 8.29, 19.64 30.62, 19.93 46.49 C20.22 62.36, 3.93 87.75, 1.4 95.49" stroke="#1e1e1e" stroke-width="1" fill="none"></path></g></g><mask></mask><g stroke-linecap="round"><g transform="translate(506.04301171599946 183.53840123164173) rotate(0 15.927822712953912 34.717715699877544)"><path d="M-0.07 -0.96 C5 4.9, 29.82 24.5, 31.18 36.04 C32.54 47.57, 12.22 62.55, 8.09 68.26 M-1.57 1.15 C3.83 6.56, 31.99 22.79, 33.54 34.09 C35.1 45.39, 12.34 63.27, 7.78 68.96" stroke="#1e1e1e" stroke-width="1" fill="none"></path></g></g><mask></mask><g stroke-linecap="round"><g transform="translate(524.1064131429976 199.85286970527068) rotate(0 -59.25683684601927 -13.262693333398829)"><path d="M-0.67 0.34 C-7.51 -4.12, -21.31 -23.76, -41.09 -27.7 C-60.87 -31.65, -106.26 -23.74, -119.36 -23.35 M1.18 -0.53 C-5.74 -4.81, -21.91 -22.67, -41.59 -26.78 C-61.27 -30.9, -103.83 -25.56, -116.91 -25.24" stroke="#1e1e1e" stroke-width="1" fill="none"></path></g></g><mask></mask><g stroke-linecap="round"><g transform="translate(527.1254385630673 236.90055314180336) rotate(0 -60.212563582105304 16.885011238348625)"><path d="M0.86 -1.18 C-5.81 3.92, -20.31 25.32, -40.72 30.95 C-61.14 36.58, -108.21 32.33, -121.6 32.6 M-0.14 0.82 C-6.38 5.56, -18.59 23.87, -38.46 29.28 C-58.32 34.7, -105.55 32.67, -119.33 33.31" stroke="#1e1e1e" stroke-width="1" fill="none"></path></g></g><mask></mask><g stroke-linecap="round"><g transform="translate(352.07040885823335 201.76433776112026) rotate(0 31.53997398092588 0.000029167355478421086)"><path d="M-0.85 0.86 C9.33 0.86, 51.35 -0.83, 61.9 -1.17 M0.91 0.27 C11.36 0.48, 53.92 -0.12, 64 -0.24" stroke="#1e1e1e" stroke-width="1" fill="none"></path></g></g><mask></mask><g stroke-linecap="round"><g transform="translate(553.8299248777366 219.71225898947614) rotate(0 31.221408124682057 0.3186096072768123)"><path d="M-1.18 -1.17 C9.26 -1.4, 51.13 -0.7, 61.81 -0.54 M0.4 0.83 C11.32 0.63, 53.86 0.41, 64.19 0.38" stroke="#1e1e1e" stroke-width="1" fill="none"></path></g></g><mask></mask><g transform="translate(443.92256297883796 204.3056652870273) rotate(0 28.298690795898438 16.725728310226714)"><text x="0" y="23.576586626095672" font-family="Excalifont, Xiaolai, Segoe UI Emoji" font-size="26.76116529636285px" fill="#1e1e1e" text-anchor="start" style="white-space: pre;" direction="ltr" dominant-baseline="alphabetic">NOR</text></g><g stroke-linecap="round"><g transform="translate(355.0445797055763 254.78612800751216) rotate(0 29.947057197641698 -0.6371462961647012)"><path d="M0.48 -0.83 C10.38 -1.02, 48.72 -2.34, 58.77 -2.33 M-0.73 1.35 C9.57 1.37, 50.7 -0.65, 60.89 -1.35" stroke="#1e1e1e" stroke-width="1" fill="none"></path></g></g><mask></mask><g stroke-linecap="round" transform="translate(536.3791116680568 210.99929124440314) rotate(0 8 8)"><path d="M9.87 -0.31 C11.48 -0.14, 13.33 1.46, 14.29 2.78 C15.24 4.09, 15.68 5.91, 15.6 7.57 C15.52 9.23, 14.78 11.38, 13.81 12.71 C12.84 14.04, 11.44 15.17, 9.77 15.55 C8.11 15.93, 5.4 15.7, 3.81 14.97 C2.22 14.24, 0.83 12.8, 0.23 11.17 C-0.37 9.54, -0.51 6.86, 0.2 5.19 C0.91 3.52, 2.91 2.05, 4.51 1.16 C6.11 0.27, 8.94 -0.01, 9.78 -0.16 C10.63 -0.31, 9.74 0.05, 9.59 0.25 M9.24 -0.46 C10.9 -0.36, 13.03 1.43, 14.2 2.94 C15.36 4.46, 16.19 6.91, 16.23 8.66 C16.26 10.4, 15.55 12.22, 14.4 13.41 C13.25 14.61, 10.97 15.63, 9.31 15.83 C7.65 16.03, 5.96 15.59, 4.43 14.61 C2.91 13.63, 0.83 11.57, 0.16 9.95 C-0.51 8.32, -0.21 6.42, 0.41 4.87 C1.04 3.33, 2.48 1.44, 3.92 0.66 C5.37 -0.11, 8.15 0.18, 9.07 0.2 C10 0.22, 9.41 0.58, 9.47 0.78" stroke="#1e1e1e" stroke-width="1" fill="none"></path></g><g stroke-linecap="round"><g transform="translate(427.0989212868826 334.460379477332) rotate(0 10.494542666848247 46.83206843599055)"><path d="M0.86 0.48 C4.53 8.57, 20.71 31.9, 20.92 47.49 C21.13 63.08, 5.13 86.47, 2.13 94 M-0.15 -0.32 C3.45 7.55, 19.17 30.57, 19.94 45.93 C20.71 61.29, 7.29 83.94, 4.48 91.84" stroke="#1e1e1e" stroke-width="1" fill="none"></path></g></g><mask></mask><g stroke-linecap="round"><g transform="translate(528.0904811954406 340.21112776057) rotate(0 15.927822712953912 34.717715699877544)"><path d="M-0.07 1.08 C4.92 7.01, 29.63 24.81, 30.8 36.04 C31.98 47.27, 11.09 63.03, 6.98 68.48 M-1.56 0.6 C3.71 6.11, 31.69 22.65, 32.96 34.09 C34.24 45.54, 10.61 63.4, 6.08 69.3" stroke="#1e1e1e" stroke-width="1" fill="none"></path></g></g><mask></mask><g stroke-linecap="round"><g transform="translate(546.1538826224387 356.52559623419893) rotate(0 -59.25683684601927 -13.262693333398829)"><path d="M-1.05 0.34 C-8.07 -4.42, -22.44 -23.27, -42.2 -27.48 C-61.96 -31.69, -106.72 -25.63, -119.62 -24.92 M0.6 -0.53 C-6.6 -4.65, -23.63 -22.54, -43.28 -26.45 C-62.93 -30.35, -104.53 -24.18, -117.3 -23.98" stroke="#1e1e1e" stroke-width="1" fill="none"></path></g></g><mask></mask><g stroke-linecap="round"><g transform="translate(549.1729080425084 393.5732796707316) rotate(0 -60.212563582105304 16.885011238348625)"><path d="M-0.25 -0.96 C-6.9 3.88, -20.77 23.43, -40.98 29.38 C-61.19 35.33, -108.14 34.1, -121.52 34.76 M1.82 1.16 C-4.38 6.11, -18.68 25.25, -38.85 30.54 C-59.02 35.84, -105.43 32.32, -119.19 32.94" stroke="#1e1e1e" stroke-width="1" fill="none"></path></g></g><mask></mask><g stroke-linecap="round"><g transform="translate(358.1178783376745 358.4370642900485) rotate(0 31.53997398092588 0.000029167355478421086)"><path d="M-1.1 -0.71 C9.27 -0.39, 51.43 0.94, 61.99 0.99 M0.52 1.53 C11.27 1.62, 53.42 -0.47, 64.13 -0.61" stroke="#1e1e1e" stroke-width="1" fill="none"></path></g></g><mask></mask><g stroke-linecap="round"><g transform="translate(562.5440813688965 376.3849855184044) rotate(0 37.88806461882268 0.3186096072768123)"><path d="M-1.09 0.99 C11.59 1.15, 62.14 0.4, 74.98 0.24 M0.54 0.47 C13.7 0.86, 64.82 1.47, 77.27 1.57" stroke="#1e1e1e" stroke-width="1" fill="none"></path></g></g><mask></mask><g transform="translate(469.9700324582791 360.3117353218149) rotate(0 28.512771606445312 16.725728310226714)"><text x="0" y="23.576586626095672" font-family="Excalifont, Xiaolai, Segoe UI Emoji" font-size="26.76116529636285px" fill="#1e1e1e" text-anchor="start" style="white-space: pre;" direction="ltr" dominant-baseline="alphabetic">XOR</text></g><g stroke-linecap="round"><g transform="translate(361.42539269087683 410.79216752472166) rotate(0 29.947057197641698 -0.6371462961647012)"><path d="M0.13 -0.58 C10.43 -0.85, 51.06 -2.06, 61.01 -1.98 M-1.26 1.73 C9.05 1.64, 50.6 -0.22, 60.64 -0.81" stroke="#1e1e1e" stroke-width="1" fill="none"></path></g></g><mask></mask><g stroke-linecap="round"><g transform="translate(412.20006246128287 334.9451082276737) rotate(0 10.494542666848247 46.83206843599055)"><path d="M1.11 -0.71 C4.57 7.32, 20.5 31.76, 20.88 47.57 C21.27 63.39, 6.51 86.54, 3.43 94.19 M0.24 1.54 C3.52 9.31, 19.45 30.96, 19.88 46.06 C20.31 61.16, 5.73 84.06, 2.8 92.13" stroke="#1e1e1e" stroke-width="1" fill="none"></path></g></g><mask></mask></svg>